<svg version="1" xmlns="http://www.w3.org/2000/svg" width="682.667" height="682.667" viewBox="0 0 512.000000 512.000000"><path d="M92.5 43.2c-6.1 2.1-12.6 8.6-14.3 14C77 61 76.9 450.7 78 455c2.5 9.2 12 16 22 15.7 5.3-.2 15-4 15-5.9 0-.4.5-.8 1.2-.8s6-2.9 11.9-6.5c5.8-3.6 11.1-6.5 11.7-6.5.6 0 1.5-.8 2.1-1.8.5-.9 1.1-1.5 1.3-1.3.4.6 10.2-5.1 10.6-6.1.2-.4.8-.8 1.3-.8s3.9-1.8 7.5-4 7-4 7.5-4 1.2-.7 1.5-1.5c.4-.8 1-1.3 1.4-1 .4.3 1.8-.3 3.1-1.3 1.4-.9 3.3-2.2 4.4-2.9 3.8-2.3 22.1-13 32-18.9 5.5-3.2 10.2-6.2 10.3-6.6.2-.4.8-.8 1.2-.8.5 0 5-2.4 10-5.4 4.9-3 9-5.1 9-4.8 0 .4.5-.1 1.1-1.1.6-.9 1.4-1.5 2-1.2.5.4.9.2.9-.3s1.8-1.7 4-2.7c2.2-1 4-2.2 4-2.7 0-.4.4-.8 1-.8.8 0 8.4-4.3 16-9 .8-.5 4.4-2.6 8-4.6 3.6-2.1 7.1-4.4 7.8-5.1.7-.7 1.7-1.3 2.2-1.3 1.2 0 16.3-9.1 17.1-10.3.3-.5.8-.8 1-.6.2.1 2.3-1 4.6-2.4 2.4-1.5 4.5-2.7 4.8-2.7.4 0 2.6-1.4 5.1-3 2.4-1.7 4.4-2.7 4.4-2.3 0 .4.4.3.8-.2 1-1.5 8.4-6.1 11-6.9 1.2-.4 2.2-1.2 2.2-1.7s.5-.9 1-.9c.6 0 3.4-1.5 6.3-3.3 2.9-1.8 6.9-4.1 9-5.2 2-1.1 3.7-2.4 3.7-2.9s.3-.7.6-.4c.3.3 2.9-.9 5.7-2.8 2.8-1.9 5.7-3.4 6.3-3.4.7 0 1.4-.4 1.6-.8.4-.9 8.9-6 10.2-6 .5 0 1.2-.4 1.5-.9.3-.5 8.5-5.6 18.1-11.3 21.1-12.5 25.7-16.8 28.8-27.3 1.2-4 .7-18.4-.7-20.1-.8-.9-1.1-1.6-.7-1.6.8 0-4.1-7.8-6.8-10.6-2.2-2.4-20-13.4-21.6-13.4-.6 0-1-.4-1-.9s-.8-1.1-1.7-1.5c-1-.3-2.5-1-3.3-1.6-.8-.5-5.3-3.2-10-6-4.7-2.7-9-5.3-9.5-5.7-2.4-1.8-7.1-4.5-8.7-5-1-.3-1.8-.9-1.8-1.4 0-.5-.4-.9-.9-.9-1 0-10.5-5.3-17.1-9.5-7.9-5-9.5-6-10-6-.3 0-3-1.6-6-3.6-3-1.9-6.2-3.8-7-4.2-.8-.4-3.3-1.8-5.5-3.2-2.2-1.3-6.9-4.1-10.5-6.1-3.6-2.1-6.6-4.1-6.8-4.6-.2-.4-.8-.8-1.2-.8-1.3 0-28.4-16.2-28.8-17.2-.2-.4-1.2-.8-2.1-.8-1 0-2.6-.9-3.6-2-.9-1-2-1.9-2.4-1.8-.6.2-7.5-3.8-14.5-8.4-2.2-1.5-4.7-2.8-5.3-2.8-.7 0-1.3-.5-1.3-1 0-.6-.4-1-1-1-.9 0-13.7-7.4-19.2-11.2-1.5-1-3-1.8-3.3-1.8-.3 0-2.4-1.2-4.8-2.7-2.3-1.5-4.5-2.6-4.9-2.5-.5.1-.8-.1-.8-.6 0-.4-1.7-1.6-3.7-2.7-2.1-1-4.5-2.5-5.3-3.1-.8-.7-3.9-2.4-6.7-3.9-2.9-1.4-5.3-3.1-5.3-3.6 0-.6-.4-.8-.9-.5-.5.3-1.4-.1-2.1-.9-.7-.8-1.6-1.5-2.1-1.5s-2.8-1.2-5.2-2.7c-2.3-1.5-5.1-3.3-6.2-3.9-1.1-.6-4-2.3-6.5-3.8s-5.3-2.9-6.2-3.3c-1-.3-1.8-.9-1.8-1.4 0-.5-.4-.9-.9-.9s-6.8-3.6-14.1-8-13.4-8-13.7-8c-.2 0-2.4-1.4-4.8-3-2.4-1.7-4.6-3-4.9-3-.3 0-3-1.6-6-3.5-2.9-1.9-5.6-3.1-6-2.8-.3.4-.6.1-.6-.6 0-.8-.7-1.1-1.5-.7-.8.3-1.5.2-1.5-.2 0-1.1-9.2-1.2-12.5 0z"/></svg>